# xmcd
#
# Track frame offsets:
#	150
#	36746
#	39131
#	41233
#	78943
#	158668
#	165134
#	168303
#	174666
#	185834
#	193906
#
# Disc length: 3006 seconds
#
# Revision: 1
# Processed by: cddbd v1.5.2PL0 Copyright (c) Steve Scherf et al.
# Submitted via: audiograbber 1.83.01
#
DISCID=8a0bbc0b
DTITLE=Grateful Dead - 70-05-07A Dupont Gymnasium, MIT, Cambridge MA
DYEAR=1900
DGENRE=
TTITLE0=King Bee
TTITLE1=Frozen Logger
TTITLE2=Drums
TTITLE3=Not Fade Away
TTITLE4=Turn On Your Lovelight
TTITLE5=St Stephen Jam
TTITLE6=Jam
TTITLE7=Darkness Jam
TTITLE8=Jam
TTITLE9=China Cat Sunflower Jam
TTITLE10=Turn On Your Lovelight
EXTD=
EXTT0=
EXTT1=
EXTT2=
EXTT3=
EXTT4=
EXTT5=
EXTT6=
EXTT7=
EXTT8=
EXTT9=
EXTT10=
PLAYORDER=
